<svg height="512" viewBox="0 0 512 512" width="512" xmlns="http://www.w3.org/2000/svg"><g><g><path d="m400 176h76a19.994 19.994 0 0 1 20 20v200a19.994 19.994 0 0 1 -20 20h-44v64l-64-64h-236a19.994 19.994 0 0 1 -20-20v-212" fill="#aa6100"/><path d="m400 52v200a19.994 19.994 0 0 1 -20 20h-236l-64 64v-64h-44a19.994 19.994 0 0 1 -20-20v-200a19.994 19.994 0 0 1 20-20h344a19.994 19.994 0 0 1 20 20z" fill="#ff9811"/><g fill="#d8d7da"><circle cx="208" cy="152" r="24"/><circle cx="112" cy="152" r="24"/><circle cx="304" cy="152" r="24"/></g></g><g><path d="m476 168h-68v-116a28.031 28.031 0 0 0 -28-28h-344a28.031 28.031 0 0 0 -28 28v200a28.031 28.031 0 0 0 28 28h36v56a8 8 0 0 0 13.66 5.66l18.34-18.35v72.69a28.031 28.031 0 0 0 28 28h232.69l61.65 61.66a8 8 0 0 0 13.66-5.66v-56h36a28.031 28.031 0 0 0 28-28v-200a28.031 28.031 0 0 0 -28-28zm-388 148.69v-44.69a8 8 0 0 0 -8-8h-44a12.01 12.01 0 0 1 -12-12v-200a12.01 12.01 0 0 1 12-12h344a12.01 12.01 0 0 1 12 12v200a12.01 12.01 0 0 1 -12 12h-236a8.008 8.008 0 0 0 -5.66 2.34zm400 79.31a12.01 12.01 0 0 1 -12 12h-44a8 8 0 0 0 -8 8v44.69l-50.34-50.35a8.008 8.008 0 0 0 -5.66-2.34h-236a12.01 12.01 0 0 1 -12-12v-88.69l27.31-27.31h232.69a28.031 28.031 0 0 0 28-28v-68h68a12.01 12.01 0 0 1 12 12z"/><path d="m208 184a32 32 0 1 0 -32-32 32.036 32.036 0 0 0 32 32zm0-48a16 16 0 1 1 -16 16 16.019 16.019 0 0 1 16-16z"/><path d="m112 184a32 32 0 1 0 -32-32 32.036 32.036 0 0 0 32 32zm0-48a16 16 0 1 1 -16 16 16.019 16.019 0 0 1 16-16z"/><path d="m304 184a32 32 0 1 0 -32-32 32.036 32.036 0 0 0 32 32zm0-48a16 16 0 1 1 -16 16 16.019 16.019 0 0 1 16-16z"/></g></g></svg>