<svg height="512" viewBox="0 0 512 512" width="512" xmlns="http://www.w3.org/2000/svg"><g><g><path d="m384 224a128.008 128.008 0 0 1 -72 115.13v44.87h-112v-44.87a128.012 128.012 0 1 1 184-115.13z" fill="#ffda44"/><path d="m232 216h48v168h-48z" fill="#d80027"/><path d="m280 200v16h-48v-16l24-32z" fill="#e0e0e2"/><path d="m184 384h144v24h-144z" fill="#57565c"/><path d="m184 432h144v24h-144z" fill="#57565c"/><g fill="#ff9811"><path d="m168 408h176v24h-176z"/><path d="m280 496h-48a32 32 0 0 1 -32-32v-8h112v8a32 32 0 0 1 -32 32z"/></g></g><g><path d="m370.73 297.05a135.492 135.492 0 0 0 21.27-73.05c0-74.99-61.01-136-136-136s-136 61.01-136 136a136.025 136.025 0 0 0 72 120.03v31.97h-8a8 8 0 0 0 -8 8v16h-8a8 8 0 0 0 -8 8v24a8 8 0 0 0 8 8h8v16a8 8 0 0 0 8 8h8a40.04 40.04 0 0 0 40 40h48a40.04 40.04 0 0 0 40-40h8a8 8 0 0 0 8-8v-16h8a8 8 0 0 0 8-8v-24a8 8 0 0 0 -8-8h-8v-16a8 8 0 0 0 -8-8h-8v-31.97a136.39 136.39 0 0 0 50.73-46.98zm-178.73 94.95h128v8h-128zm80-168v152h-32v-152zm-32-16v-5.33l16-21.34 16 21.34v5.33zm40 280h-48a24.032 24.032 0 0 1 -24-24h96a24.032 24.032 0 0 1 -24 24zm40-40h-128v-8h128zm16-32v8h-160v-8zm-27.51-84.06a8.01 8.01 0 0 0 -4.49 7.19v36.87h-16v-176a7.982 7.982 0 0 0 -1.6-4.8l-24-32a8 8 0 0 0 -12.8 0l-24 32a7.982 7.982 0 0 0 -1.6 4.8v176h-16v-36.87a8.01 8.01 0 0 0 -4.49-7.19 120 120 0 1 1 104.98 0z"/><path d="m256 232a8 8 0 0 0 -8 8v88a8 8 0 0 0 16 0v-88a8 8 0 0 0 -8-8z"/><path d="m256 344a8 8 0 0 0 -8 8v8a8 8 0 0 0 16 0v-8a8 8 0 0 0 -8-8z"/><path d="m256 64a8 8 0 0 0 8-8v-40a8 8 0 0 0 -16 0v40a8 8 0 0 0 8 8z"/><path d="m88 216h-40a8 8 0 0 0 0 16h40a8 8 0 0 0 0-16z"/><path d="m464 216h-40a8 8 0 0 0 0 16h40a8 8 0 0 0 0-16z"/><path d="m131.549 337.137-28.284 28.284a8 8 0 0 0 11.314 11.314l28.284-28.284a8 8 0 1 0 -11.314-11.314z"/><path d="m397.421 71.265-28.284 28.284a8 8 0 0 0 11.314 11.314l28.284-28.284a8 8 0 0 0 -11.314-11.314z"/><path d="m131.549 110.863a8 8 0 1 0 11.314-11.314l-28.284-28.284a8 8 0 0 0 -11.314 11.314z"/><path d="m380.451 337.137a8 8 0 1 0 -11.314 11.314l28.284 28.284a8 8 0 0 0 11.314-11.314z"/></g></g></svg>