<svg height="512" viewBox="0 0 512 512" width="512" xmlns="http://www.w3.org/2000/svg"><g><g><path d="m496 176v224h-40v48l-48-48h-232v-108.75l87.07-115.25z" fill="#ffeb99"/><path d="m272 140a281.86 281.86 0 0 1 -6.52 28.17c-18.74 65.55-61.14 97-121.48 151.83-60.34-54.83-102.74-86.28-121.48-151.83a281.86 281.86 0 0 1 -6.52-28.17 64 64 0 0 1 64-64c35.35 0 64 24.65 64 60 0-35.35 28.65-60 64-60a64 64 0 0 1 64 64z" fill="#d80027"/></g><g><path d="m496 168h-222.183c2.434-8.8 4.483-17.73 6.06-26.6a8 8 0 0 0 .123-1.4 72.081 72.081 0 0 0 -72-72c-28.565 0-52.242 14.157-64 35.833-11.758-21.676-35.435-35.833-64-35.833a72.081 72.081 0 0 0 -72 72 8 8 0 0 0 .123 1.4 291.428 291.428 0 0 0 6.705 28.97c17.18 60.092 53.336 92.432 103.378 137.192 6.571 5.878 13.367 11.957 20.414 18.36a8 8 0 0 0 10.76 0c6.411-5.825 12.6-11.373 18.62-16.755v90.833a8 8 0 0 0 8 8h228.687l45.656 45.657a8 8 0 0 0 13.657-5.657v-40h32a8 8 0 0 0 8-8v-224a8 8 0 0 0 -8-8zm-352 141.208c-5.181-4.676-10.216-9.18-15.128-13.573-49.831-44.571-82.752-74.017-98.66-129.663-2.515-8.8-4.6-17.764-6.208-26.66a56.066 56.066 0 0 1 55.996-55.312c15.364 0 29.521 5.2 39.86 14.65a49.884 49.884 0 0 1 16.14 37.35 8 8 0 0 0 16 0 49.884 49.884 0 0 1 16.14-37.35c10.339-9.45 24.496-14.65 39.86-14.65a56.066 56.066 0 0 1 56 55.312c-1.6 8.9-3.693 17.861-6.207 26.659-15.909 55.647-48.83 85.092-98.661 129.664-4.915 4.393-9.951 8.897-15.132 13.573zm344 82.792h-32a8 8 0 0 0 -8 8v28.686l-34.343-34.343a8 8 0 0 0 -5.657-2.343h-224v-97.188c38.979-35.212 68.179-64.666 84.768-110.812h219.232z"/><path d="m280 296h176a8 8 0 0 0 0-16h-176a8 8 0 0 0 0 16z"/><path d="m280 320h176a8 8 0 0 0 0-16h-176a8 8 0 0 0 0 16z"/><path d="m280 344h176a8 8 0 0 0 0-16h-176a8 8 0 0 0 0 16z"/><path d="m392 352h-112a8 8 0 0 0 0 16h112a8 8 0 0 0 0-16z"/><path d="m424 352h-8a8 8 0 0 0 0 16h8a8 8 0 0 0 0-16z"/></g></g></svg>